<svg width="2444" height="1285" viewBox="0 0 2444 1285" fill="none" xmlns="http://www.w3.org/2000/svg">
<g filter="url(#filter0_f_1015_576)">
<path d="M501 784.5V502L616 640.5L749 714L1222 784.5L1745 714L1853.5 640.5L1943 514V784.5H1222H501Z" fill="#FE6225" fill-opacity="0.6"/>
<path d="M501 784.5V502L616 640.5L749 714L1222 784.5L1745 714L1853.5 640.5L1943 514V784.5H1222H501Z" stroke="black"/>
</g>
<path opacity="0.04" d="M696.685 747.56H768.085V796H631.725V757.36L700.885 648.44H633.125V600H765.845V638.64L696.685 747.56ZM840.454 743.08C845.121 754.467 855.574 760.16 871.814 760.16C881.894 760.16 890.388 756.893 897.294 750.36L930.894 773.88C917.081 791.24 897.014 799.92 870.694 799.92C846.988 799.92 827.948 793.013 813.574 779.2C799.388 765.2 792.294 747.56 792.294 726.28C792.294 705.187 799.294 687.547 813.294 673.36C827.294 659.173 845.121 652.08 866.774 652.08C887.681 652.08 904.948 659.08 918.574 673.08C932.201 687.08 939.014 704.627 939.014 725.72C939.014 731.88 938.361 737.667 937.054 743.08H840.454ZM839.894 710.88H893.654C889.921 697.813 881.148 691.28 867.334 691.28C852.961 691.28 843.814 697.813 839.894 710.88ZM1059.02 700.52H1029.9V741.12C1029.9 747.28 1032.14 751.107 1036.62 752.6C1041.1 754.093 1048.57 754.56 1059.02 754V796C1031.21 799.36 1011.61 796.84 1000.22 788.44C989.02 779.853 983.42 764.453 983.42 742.24V700.52H962.42V656H983.42V630.8L1029.9 616.8V656H1059.02V700.52ZM1140.18 696.88C1140.18 699.493 1142.51 701.64 1147.18 703.32C1152.03 705 1157.82 706.587 1164.54 708.08C1171.45 709.573 1178.26 711.72 1184.98 714.52C1191.89 717.133 1197.67 721.707 1202.34 728.24C1207.19 734.773 1209.62 742.987 1209.62 752.88C1209.62 768.933 1203.65 780.787 1191.7 788.44C1179.75 796.093 1165.57 799.92 1149.14 799.92C1117.78 799.92 1096.87 788.813 1086.42 766.6L1127.02 746.16C1130.57 756.427 1137.85 761.56 1148.86 761.56C1157.26 761.56 1161.46 759.04 1161.46 754C1161.46 751.387 1159.13 749.24 1154.46 747.56C1149.79 745.88 1144.1 744.2 1137.38 742.52C1130.66 740.84 1123.94 738.6 1117.22 735.8C1110.5 733 1104.81 728.52 1100.14 722.36C1095.47 716.013 1093.14 708.267 1093.14 699.12C1093.14 684.187 1098.65 672.613 1109.66 664.4C1120.67 656.187 1133.93 652.08 1149.42 652.08C1177.05 652.08 1196.27 662.907 1207.1 684.56L1167.9 702.2C1163.79 694.173 1158.01 690.16 1150.54 690.16C1143.63 690.16 1140.18 692.4 1140.18 696.88ZM1327.23 700.52H1298.11V741.12C1298.11 747.28 1300.35 751.107 1304.83 752.6C1309.31 754.093 1316.78 754.56 1327.23 754V796C1299.42 799.36 1279.82 796.84 1268.43 788.44C1257.23 779.853 1251.63 764.453 1251.63 742.24V700.52H1230.63V656H1251.63V630.8L1298.11 616.8V656H1327.23V700.52ZM1413.91 682.04C1416.52 672.893 1421.75 665.8 1429.59 660.76C1437.43 655.72 1446.2 653.2 1455.91 653.2V704.72C1445.27 703.04 1435.56 705 1426.79 710.6C1418.2 716.2 1413.91 725.347 1413.91 738.04V796H1367.43V656H1413.91V682.04ZM1554.8 799.92C1534.08 799.92 1516.44 792.827 1501.88 778.64C1487.32 764.267 1480.04 746.72 1480.04 726C1480.04 705.28 1487.32 687.827 1501.88 673.64C1516.44 659.267 1534.08 652.08 1554.8 652.08C1575.71 652.08 1593.35 659.267 1607.72 673.64C1622.28 687.827 1629.56 705.28 1629.56 726C1629.56 746.72 1622.28 764.267 1607.72 778.64C1593.35 792.827 1575.71 799.92 1554.8 799.92ZM1554.8 755.12C1563.02 755.12 1569.74 752.413 1574.96 747C1580.38 741.587 1583.08 734.587 1583.08 726C1583.08 717.413 1580.38 710.413 1574.96 705C1569.74 699.587 1563.02 696.88 1554.8 696.88C1546.78 696.88 1540.06 699.587 1534.64 705C1529.42 710.413 1526.8 717.413 1526.8 726C1526.8 734.587 1529.42 741.587 1534.64 747C1540.06 752.413 1546.78 755.12 1554.8 755.12ZM1752.21 652.08C1767.33 652.08 1779.65 657.307 1789.17 667.76C1798.87 678.027 1803.73 692.867 1803.73 712.28V796H1757.25V718.16C1757.25 710.88 1755.29 705.373 1751.37 701.64C1747.63 697.907 1742.59 696.04 1736.25 696.04C1728.97 696.04 1723.27 698.28 1719.17 702.76C1715.25 707.053 1713.29 713.307 1713.29 721.52V796H1666.81V656H1713.29V670C1721.69 658.053 1734.66 652.08 1752.21 652.08Z" fill="white"/>
<defs>
<filter id="filter0_f_1015_576" x="0.5" y="0.615234" width="2443" height="1284.38" filterUnits="userSpaceOnUse" color-interpolation-filters="sRGB">
<feFlood flood-opacity="0" result="BackgroundImageFix"/>
<feBlend mode="normal" in="SourceGraphic" in2="BackgroundImageFix" result="shape"/>
<feGaussianBlur stdDeviation="250" result="effect1_foregroundBlur_1015_576"/>
</filter>
</defs>
</svg>
